<mxfile host="app.diagrams.net" modified="2024-01-02T06:30:42.696Z" agent="Mozilla/5.0 (Windows NT 10.0; Win64; x64) AppleWebKit/537.36 (KHTML, like Gecko) Chrome/120.0.0.0 Safari/537.36 Edg/120.0.0.0" version="22.1.16" etag="hzI-IH2wirShfpulYE1l" type="github">
  <diagram name="第 1 页" id="Mh6Zm43UqleaYBTv7mSH">
    <mxGraphModel>
      <root>
        <mxCell id="0" />
        <mxCell id="1" parent="0" />
      </root>
    </mxGraphModel>
  </diagram>
</mxfile>
